<svg width="18" height="18" viewBox="0 0 18 18" fill="none" xmlns="http://www.w3.org/2000/svg">
<path d="M10.875 10.25C11.3723 10.25 11.8492 10.4475 12.2008 10.7992C12.5525 11.1508 12.75 11.6277 12.75 12.125V12.75C12.75 15.2137 10.425 17.75 6.5 17.75C2.575 17.75 0.25 15.2137 0.25 12.75V12.125C0.25 11.6277 0.447544 11.1508 0.799175 10.7992C1.15081 10.4475 1.62772 10.25 2.125 10.25H10.875ZM10.875 11.5H2.125C1.95924 11.5 1.80027 11.5658 1.68306 11.6831C1.56585 11.8003 1.5 11.9592 1.5 12.125V12.75C1.5 14.5475 3.29 16.5 6.5 16.5C9.71 16.5 11.5 14.5475 11.5 12.75V12.125C11.5 11.9592 11.4342 11.8003 11.3169 11.6831C11.1997 11.5658 11.0408 11.5 10.875 11.5ZM15.25 7.75C15.4986 7.75 15.7371 7.84877 15.9129 8.02459C16.0887 8.2004 16.1875 8.43886 16.1875 8.6875C16.1875 8.93614 16.0887 9.1746 15.9129 9.35041C15.7371 9.52623 15.4986 9.625 15.25 9.625C15.0014 9.625 14.7629 9.52623 14.5871 9.35041C14.4113 9.1746 14.3125 8.93614 14.3125 8.6875C14.3125 8.43886 14.4113 8.2004 14.5871 8.02459C14.7629 7.84877 15.0014 7.75 15.25 7.75ZM6.5 2.125C7.41168 2.125 8.28602 2.48716 8.93068 3.13182C9.57534 3.77648 9.9375 4.65082 9.9375 5.5625C9.9375 6.47418 9.57534 7.34852 8.93068 7.99318C8.28602 8.63784 7.41168 9 6.5 9C5.58832 9 4.71398 8.63784 4.06932 7.99318C3.42466 7.34852 3.0625 6.47418 3.0625 5.5625C3.0625 4.65082 3.42466 3.77648 4.06932 3.13182C4.71398 2.48716 5.58832 2.125 6.5 2.125ZM6.5 3.375C5.91984 3.375 5.36344 3.60547 4.9532 4.0157C4.54297 4.42594 4.3125 4.98234 4.3125 5.5625C4.3125 6.14266 4.54297 6.69906 4.9532 7.1093C5.36344 7.51953 5.91984 7.75 6.5 7.75C7.08016 7.75 7.63656 7.51953 8.0468 7.1093C8.45703 6.69906 8.6875 6.14266 8.6875 5.5625C8.6875 4.98234 8.45703 4.42594 8.0468 4.0157C7.63656 3.60547 7.08016 3.375 6.5 3.375ZM15.25 0.25C15.913 0.25 16.5489 0.513392 17.0178 0.982233C17.4866 1.45107 17.75 2.08696 17.75 2.75C17.75 3.6625 17.485 4.175 16.8075 4.885L16.4775 5.2225C16.0063 5.71375 15.875 5.97875 15.875 6.5C15.875 6.66576 15.8092 6.82473 15.6919 6.94194C15.5747 7.05915 15.4158 7.125 15.25 7.125C15.0842 7.125 14.9253 7.05915 14.8081 6.94194C14.6908 6.82473 14.625 6.66576 14.625 6.5C14.625 5.5875 14.89 5.075 15.5675 4.365L15.8975 4.0275C16.3687 3.5375 16.5 3.2725 16.5 2.75C16.5 2.41848 16.3683 2.10054 16.1339 1.86612C15.8995 1.6317 15.5815 1.5 15.25 1.5C14.9185 1.5 14.6005 1.6317 14.3661 1.86612C14.1317 2.10054 14 2.41848 14 2.75C14 2.91576 13.9342 3.07473 13.8169 3.19194C13.6997 3.30915 13.5408 3.375 13.375 3.375C13.2092 3.375 13.0503 3.30915 12.9331 3.19194C12.8158 3.07473 12.75 2.91576 12.75 2.75C12.75 2.08696 13.0134 1.45107 13.4822 0.982233C13.9511 0.513392 14.587 0.25 15.25 0.25Z" fill="#007AFF"/>
</svg>
