<svg width="12" height="12" viewBox="0 0 12 12" fill="none" xmlns="http://www.w3.org/2000/svg">
<path d="M0.238702 0.238702C0.314176 0.163037 0.403836 0.103004 0.502547 0.0620438C0.601258 0.0210834 0.70708 0 0.813952 0C0.920824 0 1.02665 0.0210834 1.12536 0.0620438C1.22407 0.103004 1.31373 0.163037 1.3892 0.238702L5.68895 4.54008L9.9887 0.238702C10.0642 0.163159 10.1539 0.103235 10.2526 0.0623515C10.3513 0.0214679 10.4571 0.000425398 10.564 0.000425398C10.6708 0.000425398 10.7766 0.0214679 10.8753 0.0623515C10.974 0.103235 11.0637 0.163159 11.1392 0.238702C11.2147 0.314245 11.2747 0.403927 11.3156 0.502629C11.3564 0.60133 11.3775 0.707118 11.3775 0.813952C11.3775 0.920786 11.3564 1.02657 11.3156 1.12528C11.2747 1.22398 11.2147 1.31366 11.1392 1.3892L6.83783 5.68895L11.1392 9.9887C11.2147 10.0642 11.2747 10.1539 11.3156 10.2526C11.3564 10.3513 11.3775 10.4571 11.3775 10.564C11.3775 10.6708 11.3564 10.7766 11.3156 10.8753C11.2747 10.974 11.2147 11.0637 11.1392 11.1392C11.0637 11.2147 10.974 11.2747 10.8753 11.3156C10.7766 11.3564 10.6708 11.3775 10.564 11.3775C10.4571 11.3775 10.3513 11.3564 10.2526 11.3156C10.1539 11.2747 10.0642 11.2147 9.9887 11.1392L5.68895 6.83783L1.3892 11.1392C1.31366 11.2147 1.22398 11.2747 1.12528 11.3156C1.02657 11.3564 0.920786 11.3775 0.813952 11.3775C0.707118 11.3775 0.60133 11.3564 0.502629 11.3156C0.403927 11.2747 0.314245 11.2147 0.238702 11.1392C0.163159 11.0637 0.103235 10.974 0.0623515 10.8753C0.0214679 10.7766 0.000425398 10.6708 0.000425398 10.564C0.000425398 10.4571 0.0214679 10.3513 0.0623515 10.2526C0.103235 10.1539 0.163159 10.0642 0.238702 9.9887L4.54008 5.68895L0.238702 1.3892C0.163037 1.31373 0.103004 1.22407 0.0620438 1.12536C0.0210834 1.02665 0 0.920824 0 0.813952C0 0.70708 0.0210834 0.601258 0.0620438 0.502547C0.103004 0.403836 0.163037 0.314176 0.238702 0.238702Z" fill="black"/>
</svg>
