<svg width="25" height="25" viewBox="0 0 25 25" fill="none" xmlns="http://www.w3.org/2000/svg">
<path d="M10.9091 12.2807C12.5968 12.2807 14.2154 11.6338 15.4089 10.4822C16.6023 9.33069 17.2727 7.76887 17.2727 6.14035C17.2727 4.51183 16.6023 2.95001 15.4089 1.79847C14.2154 0.646928 12.5968 0 10.9091 0C9.22135 0 7.60273 0.646928 6.40932 1.79847C5.21591 2.95001 4.54545 4.51183 4.54545 6.14035C4.54545 7.76887 5.21591 9.33069 6.40932 10.4822C7.60273 11.6338 9.22135 12.2807 10.9091 12.2807ZM3.18182 14.0351C2.33795 14.0351 1.52864 14.3586 0.931933 14.9343C0.335226 15.5101 0 16.291 0 17.1053V17.5439C0 19.643 1.38455 21.4184 3.35 22.6254C5.32636 23.8395 8.00182 24.5614 10.9091 24.5614C11.5855 24.5614 12.25 24.5219 12.8955 24.4474C11.9871 23.707 11.2574 22.784 10.7572 21.7431C10.2571 20.7022 9.99866 19.5684 10 18.4211C10 16.7982 10.5073 15.2895 11.3782 14.0351H3.18182ZM25 18.4211C25 20.1659 24.2817 21.8393 23.003 23.0731C21.7243 24.3069 19.9901 25 18.1818 25C16.3735 25 14.6393 24.3069 13.3606 23.0731C12.082 21.8393 11.3636 20.1659 11.3636 18.4211C11.3636 16.6762 12.082 15.0028 13.3606 13.769C14.6393 12.5352 16.3735 11.8421 18.1818 11.8421C19.9901 11.8421 21.7243 12.5352 23.003 13.769C24.2817 15.0028 25 16.6762 25 18.4211ZM22.5 18.4211C22.6808 18.4211 22.8543 18.3517 22.9821 18.2284C23.11 18.105 23.1818 17.9376 23.1818 17.7632V15.5702C23.1818 15.3957 23.11 15.2284 22.9821 15.105C22.8543 14.9816 22.6808 14.9123 22.5 14.9123C22.3192 14.9123 22.1457 14.9816 22.0179 15.105C21.89 15.2284 21.8182 15.3957 21.8182 15.5702V16.6105C21.5412 16.0925 21.1488 15.64 20.669 15.2857C20.1893 14.9314 19.6342 14.684 19.0436 14.5613C18.453 14.4386 17.8416 14.4437 17.2533 14.5761C16.6649 14.7085 16.1143 14.965 15.6409 15.3272C15.2491 15.6272 15.3782 16.1912 15.8264 16.4079C16.0591 16.5193 16.3355 16.4675 16.5445 16.3167C16.853 16.0929 17.2072 15.9349 17.5837 15.8531C17.9602 15.7712 18.3504 15.7675 18.7285 15.842C19.1067 15.9166 19.4641 16.0677 19.7771 16.2855C20.0902 16.5033 20.3517 16.7827 20.5445 17.1053H19.7727C19.5919 17.1053 19.4185 17.1746 19.2906 17.298C19.1627 17.4213 19.0909 17.5887 19.0909 17.7632C19.0909 17.9376 19.1627 18.105 19.2906 18.2284C19.4185 18.3517 19.5919 18.4211 19.7727 18.4211H22.5ZM20.5236 20.6807C20.2955 20.4605 19.9273 20.4667 19.6564 20.6351C19.3459 20.8277 18.9981 20.9576 18.6341 21.0167C18.2701 21.0758 17.8975 21.0629 17.5388 20.979C17.18 20.895 16.8427 20.7416 16.5473 20.5281C16.2519 20.3145 16.0044 20.0454 15.82 19.7368H16.5909C16.7717 19.7368 16.9452 19.6675 17.073 19.5441C17.2009 19.4208 17.2727 19.2534 17.2727 19.0789C17.2727 18.9045 17.2009 18.7371 17.073 18.6137C16.9452 18.4904 16.7717 18.4211 16.5909 18.4211H13.8636C13.6828 18.4211 13.5094 18.4904 13.3815 18.6137C13.2537 18.7371 13.1818 18.9045 13.1818 19.0789V21.2719C13.1818 21.4464 13.2537 21.6138 13.3815 21.7371C13.5094 21.8605 13.6828 21.9298 13.8636 21.9298C14.0445 21.9298 14.2179 21.8605 14.3458 21.7371C14.4736 21.6138 14.5455 21.4464 14.5455 21.2719V20.2316C14.8105 20.7274 15.1815 21.1633 15.634 21.5106C16.0864 21.858 16.61 22.1088 17.1702 22.2467C17.7305 22.3845 18.3146 22.4062 18.8842 22.3103C19.4538 22.2144 19.9958 22.0031 20.4745 21.6903C20.8309 21.4579 20.8282 20.9746 20.5236 20.6807Z" fill="white"/>
</svg>
