<svg width="11" height="11" viewBox="0 0 11 11" fill="none" xmlns="http://www.w3.org/2000/svg">
<path d="M10.8239 3.9261C10.8239 4.01947 10.7675 4.12132 10.6548 4.23165L8.29353 6.48509L8.85294 9.66792C8.85728 9.69762 8.85944 9.74006 8.85944 9.79523C8.85944 9.88435 8.83668 9.95968 8.79115 10.0212C8.74561 10.0827 8.67948 10.1135 8.59275 10.1135C8.51036 10.1135 8.42363 10.088 8.33256 10.0371L5.41194 8.53483L2.49131 10.0371C2.39591 10.088 2.30918 10.1135 2.23112 10.1135C2.14006 10.1135 2.07176 10.0827 2.02622 10.0212C1.98069 9.95968 1.95792 9.88435 1.95792 9.79523C1.95792 9.76977 1.96226 9.72733 1.97093 9.66792L2.53034 6.48509L0.162618 4.23165C0.0542061 4.11707 0 4.01522 0 3.9261C0 3.76908 0.121422 3.67148 0.364265 3.63328L3.62964 3.16859L5.0932 0.272222C5.1756 0.0982276 5.28184 0.0112305 5.41194 0.0112305C5.54203 0.0112305 5.64828 0.0982276 5.73067 0.272222L7.19423 3.16859L10.4596 3.63328C10.7025 3.67148 10.8239 3.76908 10.8239 3.9261Z" fill="#FBBC05"/>
</svg>
