<svg width="20" height="24" viewBox="0 0 20 24" fill="none" xmlns="http://www.w3.org/2000/svg">
<g clip-path="url(#clip0_650_1624)">
<path d="M16.9662 1.86844C15.8776 0.606298 13.9098 0.0651855 11.3924 0.0651855H4.08613C3.83705 0.0651949 3.59615 0.155586 3.40673 0.320108C3.21731 0.484629 3.0918 0.71249 3.05277 0.962722L0.0105801 20.5892C-0.0498887 20.9763 0.244721 21.3267 0.630346 21.3267H5.14097L6.27378 14.0178L6.23863 14.2466C6.31933 13.73 6.75371 13.3489 7.26808 13.3489H9.41152C13.6223 13.3489 16.9194 11.6092 17.8825 6.57642C17.9111 6.42757 17.9359 6.2827 17.9573 6.14116C17.8357 6.07568 17.8357 6.07568 17.9573 6.14116C18.2441 4.281 17.9553 3.0148 16.9662 1.86844Z" fill="#27346A"/>
<path d="M7.99972 5.47107C8.12304 5.41134 8.25791 5.38039 8.39449 5.38047H14.1225C14.8007 5.38047 15.4334 5.42537 16.0115 5.52002C16.1733 5.54626 16.3342 5.57758 16.4941 5.61395C16.7207 5.66481 16.9447 5.72706 17.1652 5.80047C17.4494 5.89703 17.7141 6.00948 17.9574 6.14116C18.2441 4.28029 17.9553 3.0148 16.9662 1.86844C15.877 0.606298 13.9098 0.0651855 11.3924 0.0651855H4.0855C3.57105 0.0651855 3.13339 0.446166 3.05277 0.962722L0.0105805 20.5885C-0.0498882 20.9762 0.244721 21.3262 0.629721 21.3262H5.14097L7.49121 6.16564C7.51431 6.01662 7.57267 5.87555 7.66125 5.75456C7.74983 5.63356 7.86599 5.53628 7.99972 5.47107Z" fill="#27346A"/>
<path d="M17.8826 6.57637C16.9195 11.6084 13.6225 13.3489 9.41159 13.3489H7.26753C6.75316 13.3489 6.3187 13.73 6.23878 14.2466L4.82948 23.3344C4.77683 23.6731 5.03433 23.98 5.3712 23.98H9.17355C9.39136 23.98 9.602 23.9009 9.76759 23.7569C9.93319 23.613 10.0429 23.4137 10.0769 23.1949L10.1139 22.9978L10.8306 18.3777L10.8767 18.1224C10.9108 17.9035 11.0205 17.7042 11.186 17.5603C11.3516 17.4164 11.5622 17.3373 11.78 17.3372H12.3491C16.0325 17.3372 18.9166 15.815 19.7594 11.4127C20.1112 9.57295 19.9292 8.03695 18.9985 6.95807C18.7163 6.63129 18.3657 6.3614 17.9574 6.14111C17.9353 6.28336 17.9113 6.42752 17.8826 6.57637Z" fill="#2790C3"/>
<path d="M16.9493 5.73235C16.7992 5.68774 16.6476 5.64825 16.4948 5.61394C16.3349 5.57816 16.1739 5.54705 16.0122 5.52064C15.4335 5.42535 14.8013 5.38037 14.1224 5.38037H8.39512C8.25843 5.38006 8.12346 5.41128 8.00035 5.47168C7.86647 5.5367 7.75018 5.63392 7.66156 5.75495C7.57294 5.87598 7.51466 6.01715 7.49176 6.16625L6.27441 14.0178L6.23926 14.2466C6.31934 13.73 6.75371 13.3489 7.26816 13.3489H9.41223C13.623 13.3489 16.92 11.6092 17.8832 6.5764C17.9118 6.42755 17.9359 6.28331 17.958 6.14114C17.7141 6.01018 17.4501 5.89701 17.1658 5.80109C17.0941 5.7769 17.0219 5.75398 16.9494 5.73235" fill="#1F264F"/>
</g>
<defs>
<clipPath id="clip0_650_1624">
<rect width="20" height="24" fill="white" transform="translate(0 0.000244141)"/>
</clipPath>
</defs>
</svg>
